<?xml version="1.0" encoding="UTF-8"?>
<svg width="60px" height="60px" viewBox="0 0 60 60" version="1.1" xmlns="http://www.w3.org/2000/svg" xmlns:xlink="http://www.w3.org/1999/xlink">
    <title>Group</title>
    <g id="Page-1" stroke="none" stroke-width="1" fill="none" fill-rule="evenodd">
        <g id="Index" transform="translate(-343.000000, -407.000000)" fill="#E0DBD9" fill-rule="nonzero">
            <g id="Group" transform="translate(343.000000, 407.000000)">
                <path d="M58.4213672,51.0147656 L34.8942188,27.4875 L7.40671875,-4.97379915e-14 L5.25855469,-4.97379915e-14 L4.81992188,1.11457031 C3.66222656,4.05644531 3.16757813,7.06535156 3.38964844,9.815625 C3.64277344,12.950625 4.83375,15.6648047 6.83402344,17.6650781 L28.2922266,39.1232812 L31.1225391,36.2929687 L50.960625,58.4757422 C52.9340625,60.4491797 56.3307422,60.5663672 58.4213672,58.4757422 C60.4784766,56.4186328 60.4784766,53.0717578 58.4213672,51.0147656 Z" id="Path"></path>
                <path d="M18.3486328,34.1533594 L1.54265625,50.9593359 C-0.51421875,53.0162109 -0.51421875,56.3632031 1.54265625,58.4200781 C3.49664062,60.3740625 6.87691406,60.5465625 9.00339844,58.4200781 L25.8094922,41.6139844 L18.3486328,34.1533594 Z" id="Path"></path>
                <path d="M57.4335937,9.99011719 L47.9002734,19.5233203 L45.4132031,17.0363672 L54.9465234,7.50304687 L52.4595703,5.01609375 L42.9263672,14.5492969 L40.4394141,12.0623437 L49.9727344,2.52914062 L47.4858984,0.0423046875 L35.0511328,12.4770703 C33.5299219,13.9982812 32.6216016,16.018125 32.4931641,18.1647656 C32.4607031,18.7086328 32.3374219,19.2435937 32.1329297,19.7524219 L40.2105469,27.8300391 C40.719375,27.6253125 41.2544531,27.5021484 41.7982031,27.4696875 C43.9448437,27.3416016 45.9646875,26.4330469 47.4858984,24.9118359 L59.9206641,12.4771875 L57.4335937,9.99011719 Z" id="Path"></path>
            </g>
        </g>
    </g>
</svg>