<?xml version="1.0" encoding="UTF-8"?>
<svg width="285px" height="128px" viewBox="0 0 285 128" version="1.1" xmlns="http://www.w3.org/2000/svg" xmlns:xlink="http://www.w3.org/1999/xlink">
    <title>Logo</title>
    <g id="Symbols" stroke="none" stroke-width="1" fill="none" fill-rule="evenodd">
        <g id="blocks/logo-vectorized" transform="translate(-1.000000, 0.000000)">
            <g id="Logo" transform="translate(1.000000, 0.000000)">
                <path d="M9.956,127 C10.212,127 10.34,126.872 10.34,126.616 L10.34,126.616 L10.34,124.984 C10.34,124.728 10.212,124.6 9.956,124.6 L9.956,124.6 L6.34,124.6 L6.34,116.76 L13.86,116.76 C14.1373333,116.76 14.276,116.632 14.276,116.376 L14.276,116.376 L14.276,114.744 C14.276,114.488 14.1373333,114.36 13.86,114.36 L13.86,114.36 L6.34,114.36 L6.34,106.424 L15.428,106.424 L15.428,109.56 C15.428,109.837333 15.556,109.976 15.812,109.976 L15.812,109.976 L17.54,109.976 C17.8173333,109.976 17.956,109.837333 17.956,109.56 L17.956,109.56 L17.956,104.408 C17.956,104.152 17.8173333,104.024 17.54,104.024 L17.54,104.024 L1.124,104.024 C0.846666667,104.024 0.708,104.152 0.708,104.408 L0.708,104.408 L0.708,106.04 C0.708,106.296 0.846666667,106.424 1.124,106.424 L1.124,106.424 L3.556,106.424 L3.556,124.6 L1.124,124.6 C0.846666667,124.6 0.708,124.728 0.708,124.984 L0.708,124.984 L0.708,126.616 C0.708,126.872 0.846666667,127 1.124,127 L1.124,127 L9.956,127 Z M28.228,127 C28.484,127 28.612,126.872 28.612,126.616 L28.612,126.616 L28.612,124.984 C28.612,124.728 28.484,124.6 28.228,124.6 L28.228,124.6 L25.988,124.6 L28.068,119.064 L36.996,119.064 L39.076,124.6 L36.836,124.6 C36.58,124.6 36.452,124.728 36.452,124.984 L36.452,124.984 L36.452,126.616 C36.452,126.872 36.58,127 36.836,127 L36.836,127 L44.068,127 C44.324,127 44.452,126.872 44.452,126.616 L44.452,126.616 L44.452,124.984 C44.452,124.728 44.324,124.6 44.068,124.6 L44.068,124.6 L41.892,124.6 L34.532,105.4 C34.34,104.909333 34.1106667,104.557333 33.844,104.344 C33.5773333,104.130667 33.188,104.024 32.676,104.024 L32.676,104.024 L28.324,104.024 C28.0466667,104.024 27.908,104.152 27.908,104.408 L27.908,104.408 L27.908,106.04 C27.908,106.296 28.0466667,106.424 28.324,106.424 L28.324,106.424 L30.052,106.424 L23.172,124.6 L21.028,124.6 C20.772,124.6 20.644,124.728 20.644,124.984 L20.644,124.984 L20.644,126.616 C20.644,126.872 20.772,127 21.028,127 L21.028,127 L28.228,127 Z M36.132,116.856 L28.9,116.856 L32.484,107.352 L32.58,107.352 L36.132,116.856 Z M55.716,127 C55.9933333,127 56.132,126.872 56.132,126.616 L56.132,126.616 L56.132,124.984 C56.132,124.728 55.9933333,124.6 55.716,124.6 L55.716,124.6 L53.572,124.6 L53.572,108.664 L53.636,108.664 L59.716,123.768 C59.972,124.408 60.4413333,124.728 61.124,124.728 C61.8066667,124.728 62.276,124.408 62.532,123.768 L62.532,123.768 L68.612,108.664 L68.644,108.664 L68.644,124.6 L66.5,124.6 C66.244,124.6 66.116,124.728 66.116,124.984 L66.116,124.984 L66.116,126.616 C66.116,126.872 66.244,127 66.5,127 L66.5,127 L73.892,127 C74.148,127 74.276,126.872 74.276,126.616 L74.276,126.616 L74.276,124.984 C74.276,124.728 74.148,124.6 73.892,124.6 L73.892,124.6 L71.428,124.6 L71.428,106.424 L73.892,106.424 C74.148,106.424 74.276,106.296 74.276,106.04 L74.276,106.04 L74.276,104.408 C74.276,104.152 74.148,104.024 73.892,104.024 L73.892,104.024 L68.996,104.024 C68.2493333,104.024 67.7373333,104.386667 67.46,105.112 L67.46,105.112 L62.66,116.696 C62.276,117.677333 61.7853333,119 61.188,120.664 L61.188,120.664 L61.06,120.664 L59.556,116.632 L54.788,105.112 C54.5106667,104.386667 54.0093333,104.024 53.284,104.024 L53.284,104.024 L48.356,104.024 C48.0786667,104.024 47.94,104.152 47.94,104.408 L47.94,104.408 L47.94,106.04 C47.94,106.296 48.0786667,106.424 48.356,106.424 L48.356,106.424 L50.788,106.424 L50.788,124.6 L48.356,124.6 C48.0786667,124.6 47.94,124.728 47.94,124.984 L47.94,124.984 L47.94,126.616 C47.94,126.872 48.0786667,127 48.356,127 L48.356,127 L55.716,127 Z M85.444,127 C85.7213333,127 85.86,126.872 85.86,126.616 L85.86,126.616 L85.86,124.984 C85.86,124.728 85.7213333,124.6 85.444,124.6 L85.444,124.6 L82.98,124.6 L82.98,106.424 L85.444,106.424 C85.7213333,106.424 85.86,106.296 85.86,106.04 L85.86,106.04 L85.86,104.408 C85.86,104.152 85.7213333,104.024 85.444,104.024 L85.444,104.024 L77.764,104.024 C77.4866667,104.024 77.348,104.152 77.348,104.408 L77.348,104.408 L77.348,106.04 C77.348,106.296 77.4866667,106.424 77.764,106.424 L77.764,106.424 L80.196,106.424 L80.196,124.6 L77.764,124.6 C77.4866667,124.6 77.348,124.728 77.348,124.984 L77.348,124.984 L77.348,126.616 C77.348,126.872 77.4866667,127 77.764,127 L77.764,127 L85.444,127 Z M106.852,127 C107.129333,127 107.268,126.861333 107.268,126.584 L107.268,126.584 L107.268,121.464 C107.268,121.208 107.14,121.08 106.884,121.08 L106.884,121.08 L105.156,121.08 C104.878667,121.08 104.74,121.208 104.74,121.464 L104.74,121.464 L104.74,124.6 L94.564,124.6 L94.564,106.424 L96.996,106.424 C97.2733333,106.424 97.412,106.285333 97.412,106.008 L97.412,106.008 L97.412,104.44 C97.412,104.162667 97.2733333,104.024 96.996,104.024 L96.996,104.024 L89.348,104.024 C89.0706667,104.024 88.932,104.152 88.932,104.408 L88.932,104.408 L88.932,106.04 C88.932,106.296 89.0706667,106.424 89.348,106.424 L89.348,106.424 L91.78,106.424 L91.78,124.6 L89.348,124.6 C89.0706667,124.6 88.932,124.728 88.932,124.984 L88.932,124.984 L88.932,126.616 C88.932,126.872 89.0706667,127 89.348,127 L89.348,127 L106.852,127 Z M124.836,127 C125.092,127 125.22,126.872 125.22,126.616 L125.22,126.616 L125.22,124.984 C125.22,124.728 125.092,124.6 124.836,124.6 L124.836,124.6 L122.372,124.6 L122.372,117.72 C122.393333,117.698667 123.241333,116.194667 124.916,113.208 C126.590667,110.221333 127.950667,107.96 128.996,106.424 L128.996,106.424 L131.204,106.424 C131.46,106.424 131.588,106.296 131.588,106.04 L131.588,106.04 L131.588,104.408 C131.588,104.152 131.46,104.024 131.204,104.024 L131.204,104.024 L123.972,104.024 C123.716,104.024 123.588,104.152 123.588,104.408 L123.588,104.408 L123.588,106.04 C123.588,106.296 123.716,106.424 123.972,106.424 L123.972,106.424 L126.084,106.424 L121.092,115.32 L120.9,115.32 L115.876,106.424 L117.988,106.424 C118.244,106.424 118.372,106.296 118.372,106.04 L118.372,106.04 L118.372,104.408 C118.372,104.152 118.244,104.024 117.988,104.024 L117.988,104.024 L110.788,104.024 C110.510667,104.024 110.372,104.152 110.372,104.408 L110.372,104.408 L110.372,106.04 C110.372,106.296 110.510667,106.424 110.788,106.424 L110.788,106.424 L112.964,106.424 C113.753333,107.576 115.534667,110.616 118.308,115.544 L118.308,115.544 L119.588,117.752 L119.588,124.6 L117.124,124.6 C116.868,124.6 116.74,124.728 116.74,124.984 L116.74,124.984 L116.74,126.616 C116.74,126.872 116.868,127 117.124,127 L117.124,127 L124.836,127 Z M153.188,127 C153.444,127 153.572,126.872 153.572,126.616 L153.572,126.616 L153.572,124.984 C153.572,124.728 153.444,124.6 153.188,124.6 L153.188,124.6 L150.308,124.6 L150.308,117.752 L154.372,117.752 C154.884,117.773333 155.284,117.912 155.572,118.168 C155.86,118.424 156.132,118.818667 156.388,119.352 L156.388,119.352 L159.396,125.464 C159.908,126.488 160.548,127 161.316,127 L161.316,127 L164.1,127 C164.356,127 164.484,126.872 164.484,126.616 L164.484,126.616 L164.484,124.984 C164.484,124.728 164.356,124.6 164.1,124.6 L164.1,124.6 L162.148,124.6 L159.46,119.352 C158.862667,118.242667 158.361333,117.528 157.956,117.208 C161.092,116.376 162.66,114.285333 162.66,110.936 C162.66,108.738667 161.945333,107.037333 160.516,105.832 C159.086667,104.626667 157.230667,104.024 154.948,104.024 L154.948,104.024 L145.092,104.024 C144.814667,104.024 144.676,104.152 144.676,104.408 L144.676,104.408 L144.676,106.04 C144.676,106.296 144.814667,106.424 145.092,106.424 L145.092,106.424 L147.524,106.424 L147.524,124.6 L145.092,124.6 C144.814667,124.6 144.676,124.728 144.676,124.984 L144.676,124.984 L144.676,126.616 C144.676,126.872 144.814667,127 145.092,127 L145.092,127 L153.188,127 Z M154.404,115.48 L150.308,115.48 L150.308,106.424 L154.404,106.424 C158.030667,106.424 159.844,107.96 159.844,111.032 C159.844,113.997333 158.030667,115.48 154.404,115.48 L154.404,115.48 Z M184.964,127 C185.241333,127 185.38,126.872 185.38,126.616 L185.38,126.616 L185.38,121.464 C185.38,121.208 185.241333,121.08 184.964,121.08 L184.964,121.08 L183.236,121.08 C182.958667,121.08 182.82,121.208 182.82,121.464 L182.82,121.464 L182.82,124.6 L173.188,124.6 L173.188,116.76 L181.284,116.76 C181.561333,116.76 181.7,116.632 181.7,116.376 L181.7,116.376 L181.7,114.744 C181.7,114.488 181.561333,114.36 181.284,114.36 L181.284,114.36 L173.188,114.36 L173.188,106.424 L182.852,106.424 L182.852,109.56 C182.852,109.837333 182.98,109.976 183.236,109.976 L183.236,109.976 L184.964,109.976 C185.241333,109.976 185.38,109.837333 185.38,109.56 L185.38,109.56 L185.38,104.408 C185.38,104.152 185.241333,104.024 184.964,104.024 L184.964,104.024 L167.972,104.024 C167.694667,104.024 167.556,104.152 167.556,104.408 L167.556,104.408 L167.556,106.04 C167.556,106.296 167.694667,106.424 167.972,106.424 L167.972,106.424 L170.404,106.424 L170.404,124.6 L167.972,124.6 C167.694667,124.6 167.556,124.728 167.556,124.984 L167.556,124.984 L167.556,126.616 C167.556,126.872 167.694667,127 167.972,127 L167.972,127 L184.964,127 Z M199.364,127.224 C200.644,127.224 201.844,127.064 202.964,126.744 C204.084,126.424 204.985333,126.056 205.668,125.64 C206.350667,125.224 206.98,124.728 207.556,124.152 C208.132,123.576 208.532,123.122667 208.756,122.792 C208.98,122.461333 209.14,122.194667 209.236,121.992 C209.332,121.789333 209.38,121.629333 209.38,121.512 C209.38,121.394667 209.326667,121.293333 209.22,121.208 L209.22,121.208 L207.876,120.312 C207.641333,120.12 207.438667,120.184 207.268,120.504 C206.777333,121.336 206.009333,122.157333 204.964,122.968 C203.62,124.013333 201.785333,124.536 199.46,124.536 C197.305333,124.536 195.428,123.741333 193.828,122.152 C192.228,120.562667 191.428,118.333333 191.428,115.464 C191.428,112.594667 192.222667,110.376 193.812,108.808 C195.401333,107.24 197.188,106.456 199.172,106.456 C201.156,106.456 202.814667,106.984 204.148,108.04 C205.481333,109.096 206.148,110.114667 206.148,111.096 L206.148,111.096 L206.148,111.384 C206.148,111.661333 206.276,111.8 206.532,111.8 L206.532,111.8 L208.548,111.8 C208.825333,111.8 208.964,111.661333 208.964,111.384 L208.964,111.384 L208.964,104.408 C208.964,104.152 208.825333,104.024 208.548,104.024 L208.548,104.024 L206.756,104.024 C206.457333,104.024 206.329333,104.152 206.372,104.408 L206.372,104.408 L206.404,107.256 C204.910667,104.973333 202.510667,103.832 199.204,103.832 C196.238667,103.832 193.705333,104.877333 191.604,106.968 C189.502667,109.058667 188.452,111.869333 188.452,115.4 C188.452,118.930667 189.492,121.784 191.572,123.96 C193.652,126.136 196.249333,127.224 199.364,127.224 Z M220.612,127 C220.889333,127 221.028,126.872 221.028,126.616 L221.028,126.616 L221.028,124.984 C221.028,124.728 220.889333,124.6 220.612,124.6 L220.612,124.6 L218.148,124.6 L218.148,106.424 L220.612,106.424 C220.889333,106.424 221.028,106.296 221.028,106.04 L221.028,106.04 L221.028,104.408 C221.028,104.152 220.889333,104.024 220.612,104.024 L220.612,104.024 L212.932,104.024 C212.654667,104.024 212.516,104.152 212.516,104.408 L212.516,104.408 L212.516,106.04 C212.516,106.296 212.654667,106.424 212.932,106.424 L212.932,106.424 L215.364,106.424 L215.364,124.6 L212.932,124.6 C212.654667,124.6 212.516,124.728 212.516,124.984 L212.516,124.984 L212.516,126.616 C212.516,126.872 212.654667,127 212.932,127 L212.932,127 L220.612,127 Z M232.868,127 C233.124,127 233.252,126.872 233.252,126.616 L233.252,126.616 L233.252,124.984 C233.252,124.728 233.124,124.6 232.868,124.6 L232.868,124.6 L229.732,124.6 L229.732,118.328 L234.02,118.328 C236.58,118.328 238.564,117.714667 239.972,116.488 C241.38,115.261333 242.084,113.533333 242.084,111.304 C242.084,109.074667 241.364,107.304 239.924,105.992 C238.484,104.68 236.633333,104.024 234.372,104.024 L234.372,104.024 L224.516,104.024 C224.238667,104.024 224.1,104.152 224.1,104.408 L224.1,104.408 L224.1,106.04 C224.1,106.296 224.238667,106.424 224.516,106.424 L224.516,106.424 L226.948,106.424 L226.948,124.6 L224.516,124.6 C224.238667,124.6 224.1,124.728 224.1,124.984 L224.1,124.984 L224.1,126.616 C224.1,126.872 224.238667,127 224.516,127 L224.516,127 L232.868,127 Z M233.892,116.056 L229.732,116.056 L229.732,106.424 L233.924,106.424 C235.46,106.424 236.734667,106.829333 237.748,107.64 C238.761333,108.450667 239.268,109.677333 239.268,111.32 C239.268,114.477333 237.476,116.056 233.892,116.056 L233.892,116.056 Z M262.564,127 C262.841333,127 262.98,126.872 262.98,126.616 L262.98,126.616 L262.98,121.464 C262.98,121.208 262.841333,121.08 262.564,121.08 L262.564,121.08 L260.836,121.08 C260.558667,121.08 260.42,121.208 260.42,121.464 L260.42,121.464 L260.42,124.6 L250.788,124.6 L250.788,116.76 L258.884,116.76 C259.161333,116.76 259.3,116.632 259.3,116.376 L259.3,116.376 L259.3,114.744 C259.3,114.488 259.161333,114.36 258.884,114.36 L258.884,114.36 L250.788,114.36 L250.788,106.424 L260.452,106.424 L260.452,109.56 C260.452,109.837333 260.58,109.976 260.836,109.976 L260.836,109.976 L262.564,109.976 C262.841333,109.976 262.98,109.837333 262.98,109.56 L262.98,109.56 L262.98,104.408 C262.98,104.152 262.841333,104.024 262.564,104.024 L262.564,104.024 L245.572,104.024 C245.294667,104.024 245.156,104.152 245.156,104.408 L245.156,104.408 L245.156,106.04 C245.156,106.296 245.294667,106.424 245.572,106.424 L245.572,106.424 L248.004,106.424 L248.004,124.6 L245.572,124.6 C245.294667,124.6 245.156,124.728 245.156,124.984 L245.156,124.984 L245.156,126.616 C245.156,126.872 245.294667,127 245.572,127 L245.572,127 L262.564,127 Z M276.26,127.224 C278.926667,127.224 280.932,126.616 282.276,125.4 C283.62,124.184 284.292,122.637333 284.292,120.76 C284.292,119.693333 284.025333,118.770667 283.492,117.992 C282.958667,117.213333 282.265333,116.6 281.412,116.152 C280.558667,115.704 279.62,115.32 278.596,115 C277.572,114.68 276.548,114.386667 275.524,114.12 C274.5,113.853333 273.561333,113.56 272.708,113.24 C271.854667,112.92 271.161333,112.493333 270.628,111.96 C270.094667,111.426667 269.828,110.786667 269.828,110.04 C269.828,108.994667 270.26,108.136 271.124,107.464 C271.988,106.792 273.124,106.456 274.532,106.456 C276.430667,106.456 277.870667,106.904 278.852,107.8 C279.833333,108.696 280.324,109.581333 280.324,110.456 L280.324,110.456 L280.324,111.352 C280.324,111.608 280.452,111.736 280.708,111.736 L280.708,111.736 L282.724,111.736 C282.98,111.736 283.108,111.608 283.108,111.352 L283.108,111.352 L283.108,104.376 C283.108,104.12 282.98,103.992 282.724,103.992 L282.724,103.992 L280.932,103.992 C280.654667,103.992 280.516,104.12 280.516,104.376 L280.516,104.376 L280.58,106.36 C279.236,104.674667 277.124,103.832 274.244,103.832 C271.961333,103.832 270.142667,104.418667 268.788,105.592 C267.433333,106.765333 266.756,108.248 266.756,110.04 C266.756,111.149333 267.017333,112.114667 267.54,112.936 C268.062667,113.757333 268.74,114.397333 269.572,114.856 C270.404,115.314667 271.326667,115.709333 272.34,116.04 C273.353333,116.370667 274.366667,116.664 275.38,116.92 C276.393333,117.176 277.316,117.453333 278.148,117.752 C278.98,118.050667 279.657333,118.450667 280.18,118.952 C280.702667,119.453333 280.964,120.056 280.964,120.76 C280.964,121.976 280.5,122.925333 279.572,123.608 C278.644,124.290667 277.358667,124.632 275.716,124.632 C274.756,124.632 273.865333,124.477333 273.044,124.168 C272.222667,123.858667 271.566667,123.490667 271.076,123.064 C270.585333,122.637333 270.094667,122.088 269.604,121.416 C269.113333,120.744 268.868,120.205333 268.868,119.8 L268.868,119.8 L268.868,119.128 C268.868,118.850667 268.74,118.712 268.484,118.712 L268.484,118.712 L266.468,118.712 C266.190667,118.712 266.052,118.850667 266.052,119.128 L266.052,119.128 L266.052,126.616 C266.052,126.872 266.190667,127 266.468,127 L266.468,127 L268.26,127 C268.516,127 268.644,126.872 268.644,126.616 L268.644,126.616 L268.612,123.48 C269.188,124.397333 270.116,125.250667 271.396,126.04 C272.676,126.829333 274.297333,127.224 276.26,127.224 Z" id="FAMILYRECIPES" fill="#C7A195" fill-rule="nonzero"></path>
                <g id="Group-2" transform="translate(2.000000, 50.000000)" fill="#78AB9D">
                    <path d="M110.856,32.576 C112.456,32.576 113.912,32.256 115.224,31.616 C116.536,30.976 117.570667,30.1013333 118.328,28.992 C119.085333,27.8826667 119.464,26.6453333 119.464,25.28 C119.464,24.2773333 119.277333,23.344 118.904,22.48 C118.530667,21.616 118.082667,20.8533333 117.56,20.192 C117.037333,19.5306667 116.349333,18.7413333 115.496,17.824 C114.450667,16.672 113.682667,15.728 113.192,14.992 C112.701333,14.256 112.456,13.4613333 112.456,12.608 C112.456,11.6693333 112.728,10.896 113.272,10.288 C113.816,9.68 114.514667,9.376 115.368,9.376 C116.072,9.376 116.626667,9.57866667 117.032,9.984 C117.437333,10.3893333 117.64,10.9333333 117.64,11.616 C117.64,12.1493333 117.522667,12.6613333 117.288,13.152 C117.053333,13.6426667 116.733333,14.0373333 116.328,14.336 C116.818667,14.9973333 117.469333,15.328 118.28,15.328 C119.005333,15.328 119.592,15.0506667 120.04,14.496 C120.488,13.9413333 120.712,13.216 120.712,12.32 C120.712,10.9546667 120.194667,9.86666667 119.16,9.056 C118.125333,8.24533333 116.744,7.84 115.016,7.84 C113.650667,7.84 112.424,8.096 111.336,8.608 C110.248,9.12 109.394667,9.81866667 108.776,10.704 C108.157333,11.5893333 107.848,12.5866667 107.848,13.696 C107.848,14.8266667 108.141333,15.8666667 108.728,16.816 C109.314667,17.7653333 110.184,18.9013333 111.336,20.224 C112.445333,21.504 113.277333,22.592 113.832,23.488 C114.386667,24.384 114.664,25.3333333 114.664,26.336 C114.664,27.488 114.296,28.4426667 113.56,29.2 C112.824,29.9573333 111.890667,30.336 110.76,30.336 C109.842667,30.336 109.106667,30.0586667 108.552,29.504 C107.997333,28.9493333 107.72,28.2133333 107.72,27.296 C107.72,26.2933333 108.050667,25.4986667 108.712,24.912 C109.373333,24.3253333 110.258667,24.032 111.368,24.032 C111.24,23.3706667 110.92,22.8533333 110.408,22.48 C109.896,22.1066667 109.266667,21.92 108.52,21.92 C107.709333,21.92 106.968,22.144 106.296,22.592 C105.624,23.04 105.090667,23.648 104.696,24.416 C104.301333,25.184 104.104,26.0373333 104.104,26.976 C104.104,28.0853333 104.381333,29.0613333 104.936,29.904 C105.490667,30.7466667 106.28,31.4026667 107.304,31.872 C108.328,32.3413333 109.512,32.576 110.856,32.576 Z M125.832,32.192 C129.330667,32.192 132.264,30.2186667 134.632,26.272 L134.632,26.272 L133.544,26.272 C132.562667,27.36 131.661333,28.1706667 130.84,28.704 C130.018667,29.2373333 129.032,29.504 127.88,29.504 C127.069333,29.504 126.482667,29.3173333 126.12,28.944 C125.757333,28.5706667 125.576,27.8613333 125.576,26.816 C125.576,26.6026667 125.597333,26.176 125.64,25.536 C126.92,25.4506667 128.125333,25.104 129.256,24.496 C130.386667,23.888 131.293333,23.0826667 131.976,22.08 C132.658667,21.0773333 133,19.9786667 133,18.784 C133,16.736 131.826667,15.712 129.48,15.712 C127.474667,15.712 125.821333,16.3573333 124.52,17.648 C123.218667,18.9386667 122.28,20.4693333 121.704,22.24 C121.128,24.0106667 120.84,25.632 120.84,27.104 C120.84,28.8533333 121.277333,30.1386667 122.152,30.96 C123.026667,31.7813333 124.253333,32.192 125.832,32.192 Z M125.896,24 C126.216,22.2933333 126.744,20.768 127.48,19.424 C128.216,18.08 128.968,17.408 129.736,17.408 C130.269333,17.408 130.536,17.8453333 130.536,18.72 C130.536,19.5946667 130.317333,20.4266667 129.88,21.216 C129.442667,22.0053333 128.866667,22.656 128.152,23.168 C127.437333,23.68 126.685333,23.9573333 125.896,24 Z M138.12,32.192 C141.618667,32.192 144.552,30.2186667 146.92,26.272 L146.92,26.272 L145.832,26.272 C144.850667,27.36 143.949333,28.1706667 143.128,28.704 C142.306667,29.2373333 141.32,29.504 140.168,29.504 C139.357333,29.504 138.770667,29.3173333 138.408,28.944 C138.045333,28.5706667 137.864,27.8613333 137.864,26.816 C137.864,25.6213333 138.066667,24.2773333 138.472,22.784 C138.877333,21.2906667 139.4,20.0213333 140.04,18.976 C140.68,17.9306667 141.32,17.408 141.96,17.408 C142.258667,17.408 142.482667,17.5253333 142.632,17.76 C142.781333,17.9946667 142.856,18.3146667 142.856,18.72 C142.856,19.2746667 142.728,19.904 142.472,20.608 C142.856,20.864 143.229333,20.992 143.592,20.992 C144.082667,20.992 144.488,20.7893333 144.808,20.384 C145.128,19.9786667 145.288,19.4026667 145.288,18.656 C145.288,17.8026667 145.016,17.0986667 144.472,16.544 C143.928,15.9893333 143.016,15.712 141.736,15.712 C139.752,15.712 138.114667,16.3573333 136.824,17.648 C135.533333,18.9386667 134.594667,20.4693333 134.008,22.24 C133.421333,24.0106667 133.128,25.632 133.128,27.104 C133.128,28.8533333 133.565333,30.1386667 134.44,30.96 C135.314667,31.7813333 136.541333,32.192 138.12,32.192 Z M149.224,32 L151.784,19.84 C152.274667,19.392 152.674667,19.0773333 152.984,18.896 C153.293333,18.7146667 153.672,18.624 154.12,18.624 C154.290667,18.624 154.408,18.688 154.472,18.816 C154.536,18.944 154.6,19.1466667 154.664,19.424 C154.749333,19.8506667 154.872,20.176 155.032,20.4 C155.192,20.624 155.506667,20.736 155.976,20.736 C156.701333,20.736 157.266667,20.5013333 157.672,20.032 C158.077333,19.5626667 158.28,19.0186667 158.28,18.4 C158.28,17.7386667 158.082667,17.1733333 157.688,16.704 C157.293333,16.2346667 156.754667,16 156.072,16 C155.389333,16 154.754667,16.1706667 154.168,16.512 C153.581333,16.8533333 152.925333,17.344 152.2,17.984 L152.2,17.984 L152.616,16 L148.008,16 L144.616,32 L149.224,32 Z M162.44,32.192 C165.938667,32.192 168.872,30.2186667 171.24,26.272 L171.24,26.272 L170.152,26.272 C169.170667,27.36 168.269333,28.1706667 167.448,28.704 C166.626667,29.2373333 165.64,29.504 164.488,29.504 C163.677333,29.504 163.090667,29.3173333 162.728,28.944 C162.365333,28.5706667 162.184,27.8613333 162.184,26.816 C162.184,26.6026667 162.205333,26.176 162.248,25.536 C163.528,25.4506667 164.733333,25.104 165.864,24.496 C166.994667,23.888 167.901333,23.0826667 168.584,22.08 C169.266667,21.0773333 169.608,19.9786667 169.608,18.784 C169.608,16.736 168.434667,15.712 166.088,15.712 C164.082667,15.712 162.429333,16.3573333 161.128,17.648 C159.826667,18.9386667 158.888,20.4693333 158.312,22.24 C157.736,24.0106667 157.448,25.632 157.448,27.104 C157.448,28.8533333 157.885333,30.1386667 158.76,30.96 C159.634667,31.7813333 160.861333,32.192 162.44,32.192 Z M162.504,24 C162.824,22.2933333 163.352,20.768 164.088,19.424 C164.824,18.08 165.576,17.408 166.344,17.408 C166.877333,17.408 167.144,17.8453333 167.144,18.72 C167.144,19.5946667 166.925333,20.4266667 166.488,21.216 C166.050667,22.0053333 165.474667,22.656 164.76,23.168 C164.045333,23.68 163.293333,23.9573333 162.504,24 Z M173.16,32.192 C173.842667,32.192 174.472,31.9786667 175.048,31.552 C175.624,31.1253333 176.125333,30.2933333 176.552,29.056 C176.381333,29.12 176.104,29.152 175.72,29.152 C174.973333,29.152 174.6,28.768 174.6,28 C174.6,27.7226667 174.653333,27.3493333 174.76,26.88 L174.76,26.88 L176.808,17.28 L178.728,17.28 L178.984,16 L177.064,16 C177.426667,14.1866667 177.682667,12.9813333 177.832,12.384 C177.853333,12.2346667 177.96,11.7546667 178.152,10.944 L178.152,10.944 L173.416,11.584 L172.456,16 L171.4,16 L171.144,17.28 L172.2,17.28 L170.152,26.88 C170.024,27.456 169.96,28.0213333 169.96,28.576 C169.96,29.664 170.221333,30.5386667 170.744,31.2 C171.266667,31.8613333 172.072,32.192 173.16,32.192 Z" id="Secret" fill-rule="nonzero"></path>
                    <rect id="Rectangle" x="0" y="20" width="88" height="2"></rect>
                    <rect id="Rectangle-Copy" x="194" y="19" width="86" height="2"></rect>
                </g>
                <g id="Group-3" transform="translate(117.000000, 0.000000)" fill="#C7A195" fill-rule="nonzero">
                    <circle id="Oval" cx="39.9427734" cy="34.5493164" r="1"></circle>
                    <path d="M49.2441406,9.38613281 C48.7597656,8.24150391 48.0673828,7.2140625 47.1845703,6.33134766 C46.3027344,5.44960938 45.2743164,4.75654297 44.1298828,4.27265625 C42.9453125,3.77119141 41.6875,3.51699219 40.3896484,3.51699219 L40.3875977,3.51699219 C39.5770508,3.51699219 38.7704102,3.61865234 37.9901367,3.81904297 C37.234375,4.01357422 36.5029297,4.30097656 35.815332,4.6734375 C33.3056641,1.70380859 29.6366211,4.26325641e-14 25.7508789,4.26325641e-14 C24.6893555,4.26325641e-14 23.634668,0.126074219 22.6131836,0.376269531 C21.6209961,0.61875 20.6561523,0.978417969 19.7460937,1.44570313 C18.8525391,1.90419922 18.0087891,2.46621094 17.2402344,3.1171875 C16.4765625,3.76435547 15.7851562,4.49941406 15.1874023,5.3 C14.3916016,4.73203125 13.518457,4.29121094 12.5907227,3.98916016 C11.6307617,3.67529297 10.6288086,3.51699219 9.61220703,3.51699219 L9.61025391,3.51699219 C8.31240234,3.51699219 7.05458984,3.77119141 5.86992187,4.27265625 C4.72539062,4.75654297 3.69707031,5.44960938 2.81533203,6.33134766 C1.93251953,7.2140625 1.2390625,8.24140625 0.755761719,9.38613281 C0.254785156,10.5708008 -2.23820962e-13,11.8298828 -2.23820962e-13,13.1280273 C-2.23820962e-13,15.61875 0.950097656,17.9813477 2.67285156,19.778125 C3.51171875,20.6529297 4.4921875,21.3529297 5.58789062,21.8583008 C6.71689453,22.3792969 7.921875,22.671582 9.16992187,22.7283203 L11.0586914,49.0919922 C11.0762695,49.340332 11.1856445,49.569043 11.3671875,49.7380859 C11.5479492,49.9072266 11.7842773,50.0000977 12.0323242,50.0000977 L38.90625,50.0000977 C39.1542969,50.0000977 39.390625,49.9072266 39.5713867,49.7380859 C39.7529297,49.5689453 39.8623047,49.3402344 39.8799805,49.0919922 L40.6025391,39.005957 C40.6210937,38.7449219 40.5371094,38.49375 40.3662109,38.2962891 C40.1953125,38.0988281 39.9580078,37.9795898 39.6982422,37.9609375 C39.6748047,37.9589844 39.6503906,37.9580078 39.6270508,37.9580078 C39.1181641,37.9580078 38.6915039,38.3568359 38.6542969,38.8651367 L38.6542969,38.8661133 L38.2837891,44.0413086 L32.4476562,44.0413086 L32.6735352,40.8075195 C32.7112305,40.2689453 32.3054687,39.8018555 31.7674805,39.7641602 C31.2296875,39.7259766 30.762793,40.1325195 30.7251953,40.6710938 L30.4897461,44.0413086 L20.4088867,44.0413086 L20.1734375,40.6710938 C20.1358398,40.1326172 19.6698242,39.7261719 19.1311523,39.7641602 C18.5930664,39.8018555 18.1874023,40.2689453 18.2250977,40.8075195 L18.4509766,44.0413086 L12.6953125,44.0413086 C12.6816406,44.0413086 12.6682617,44.0427734 12.6546875,44.0433594 L11.1191406,22.6058594 C12.1047852,22.431543 13.1091797,22.0918945 14.0266602,21.6162109 C14.5055664,21.3678711 14.6927734,20.7780273 14.4447266,20.2986328 C14.1966797,19.8194336 13.6077148,19.6319336 13.128418,19.8801758 C12.1401367,20.3925781 11.0370117,20.7089844 10.0198242,20.7726563 C9.87900391,20.7791992 9.74179687,20.7831055 9.61035156,20.7831055 C7.56542969,20.7831055 5.64257812,19.9864258 4.1953125,18.5407227 C2.75,17.0928711 1.953125,15.1709961 1.953125,13.1280273 C1.953125,11.0839844 2.75,9.16123047 4.1953125,7.71455078 C5.64257812,6.26884766 7.56542969,5.47216797 9.61035156,5.47216797 C11.2504883,5.47216797 12.8333008,5.99658203 14.1429687,6.95957031 C13.7912109,7.59492188 13.5189453,8.18671875 13.3203125,8.75078125 C13.1411133,9.25996094 13.4081055,9.81826172 13.9167969,9.99765625 C14.0241211,10.0355469 14.1336914,10.0535156 14.2413086,10.0535156 C14.6439453,10.0535156 15.0208984,9.80234375 15.1624023,9.40058594 C15.3923828,8.74716797 16.3030273,7.13330078 16.3208984,7.09306641 C18.4040039,3.87265625 21.9148437,1.95507813 25.7507812,1.95507813 C29.3200195,1.95507813 32.5870117,3.59208984 34.730957,6.44912109 C34.7401367,6.46308594 35.9754883,8.39287109 36.3084961,9.31435547 C36.4522461,9.71220703 36.8272461,9.95966797 37.2268555,9.95966797 C37.3371094,9.95966797 37.4492187,9.94082031 37.5588867,9.90107422 C38.0660156,9.71748047 38.3285156,9.15703125 38.1450195,8.64931641 C37.8613281,7.86416016 37.4666016,7.06972656 36.9706055,6.27724609 C38.0269531,5.74902344 39.1916992,5.47216797 40.3894531,5.47216797 C42.434375,5.47216797 44.3572266,6.26884766 45.8044922,7.71455078 C47.2498047,9.16123047 48.0457031,11.0839844 48.0466797,13.1280273 C48.0486328,17.1964844 44.8679687,20.5541992 40.8063477,20.7722656 C40.7802734,20.7736328 40.474707,20.7722656 40.3318359,20.7722656 C39.0394531,20.7722656 37.8238281,20.4388672 36.615625,19.752832 C36.1466797,19.4865234 35.5504883,19.6512695 35.284375,20.1208008 C35.0182617,20.590332 35.1829102,21.1870117 35.6520508,21.4533203 C36.9803711,22.2075195 38.3769531,22.6290039 39.8105469,22.7113281 L39.2820312,30.0908203 C39.2438477,30.628418 39.6492187,31.0966797 40.1863281,31.1358398 C40.2097656,31.137793 40.2332031,31.1387695 40.2566406,31.1387695 L40.2577148,31.1387695 C40.7665039,31.1387695 41.1942383,30.7399414 41.2303711,30.2306641 L41.7742187,22.6382813 C44.0379883,22.3118164 46.1179687,21.1788086 47.6296875,19.4466797 C48.3787109,18.590332 48.9626953,17.6197266 49.3680664,16.5610352 C49.7869141,15.4662109 49.9999024,14.3107422 49.9999024,13.1280273 C49.9999024,11.8298828 49.7451172,10.5708008 49.2441406,9.38613281 Z M38.14375,45.9961914 L37.9970703,48.0449219 L12.9414062,48.0449219 L12.7946289,45.9961914 L38.14375,45.9961914 Z" id="Shape"></path>
                </g>
            </g>
        </g>
    </g>
</svg>